<svg width="1244" height="317" viewBox="0 0 1244 317" fill="none" xmlns="http://www.w3.org/2000/svg">
<g opacity="0.5">
<path d="M764.742 31.1915C764.755 30.9595 764.703 30.7285 764.59 30.5254C764.477 30.3224 764.309 30.1559 764.105 30.0453C750.543 22.5846 713.62 26.2557 690.586 39.5902C686.484 41.9436 682.594 44.6511 678.961 47.6821C673.491 45.679 667.778 44.5881 662.445 45.3927C647.384 47.7197 639.315 62.1864 636.439 68.5694C636.279 68.9182 636.203 69.2993 636.215 69.6829C636.227 70.0665 636.328 70.442 636.509 70.78C636.69 71.1179 636.947 71.409 637.26 71.6305C637.572 71.8519 637.932 71.9976 638.31 72.0561L660.584 75.4776C660.162 77.1181 659.824 78.7789 659.571 80.4538C659.378 81.6124 659.596 82.8021 660.187 83.8164L666.325 94.4527C666.906 95.4721 667.824 96.2559 668.92 96.6689C670.484 97.2831 672.078 97.8173 673.695 98.2695L665.532 119.307C665.394 119.665 665.34 120.05 665.375 120.432C665.411 120.814 665.534 121.182 665.735 121.509C665.936 121.835 666.209 122.11 666.534 122.313C666.859 122.515 667.226 122.639 667.607 122.676C674.535 123.392 691.086 123.624 700.591 111.693C703.952 107.463 705.872 101.984 706.886 96.2621C711.328 94.6236 715.619 92.6 719.711 90.2143C742.796 76.9224 764.154 47.413 764.742 31.1915ZM707.325 63.6262C706.106 61.5105 705.54 59.0798 705.699 56.6416C705.858 54.2033 706.734 51.8671 708.216 49.9283C709.699 47.9896 711.721 46.5354 714.027 45.7498C716.334 44.9642 718.821 44.8824 721.174 45.5149C723.526 46.1473 725.639 47.4654 727.245 49.3026C728.851 51.1398 729.878 53.4135 730.195 55.8361C730.513 58.2587 730.107 60.7213 729.029 62.9125C727.951 65.1037 726.25 66.925 724.14 68.146C722.74 68.958 721.195 69.4852 719.592 69.6975C717.989 69.9098 716.36 69.803 714.798 69.3832C713.236 68.9634 711.772 68.2389 710.49 67.251C709.208 66.2632 708.132 65.0314 707.325 63.6262Z" fill="#292524" fill-opacity="0.1"/>
<path d="M664.133 100.373C662.411 101.373 660.09 101.319 657.347 101.069C651.188 100.493 647.351 93.9892 650.004 88.3003C651.013 86.1444 653.055 83.2911 653.998 82.7452C654.203 82.629 654.367 82.451 654.465 82.2363C654.564 82.0216 654.592 81.7812 654.547 81.5493C654.502 81.3174 654.385 81.1057 654.213 80.9443C654.04 80.7829 653.822 80.68 653.588 80.6502C650.186 80.1692 646.722 80.8435 643.746 82.566C636.358 86.8491 630.011 108.404 630.011 108.404C630.011 108.404 651.806 113.671 659.194 109.388C662.176 107.668 664.493 104.991 665.773 101.789C666.143 100.775 665.047 99.8167 664.133 100.373Z" fill="#292524" fill-opacity="0.1"/>
<path d="M792.369 109.449C792.175 109.322 791.95 109.252 791.718 109.248C791.486 109.245 791.258 109.308 791.061 109.429C777.839 117.481 762.547 151.393 762.542 178.072C762.522 182.812 762.915 187.545 763.715 192.216C759.251 195.967 755.452 200.385 753.481 205.42C747.959 219.668 756.414 233.911 760.486 239.601C760.708 239.914 760.998 240.171 761.336 240.353C761.673 240.534 762.047 240.634 762.43 240.646C762.812 240.657 763.192 240.58 763.539 240.419C763.887 240.258 764.192 240.019 764.432 239.719L778.523 222.079C779.728 223.266 780.993 224.39 782.312 225.448C783.216 226.194 784.352 226.6 785.523 226.594L797.775 226.579C798.945 226.584 800.081 226.179 800.985 225.433C802.298 224.382 803.556 223.264 804.755 222.085L818.835 239.696C819.075 239.995 819.381 240.233 819.728 240.394C820.075 240.554 820.455 240.632 820.837 240.62C821.219 240.609 821.594 240.509 821.931 240.328C822.268 240.147 822.559 239.89 822.781 239.577C826.864 233.916 835.339 219.654 829.792 205.431C827.82 200.396 824.05 195.989 819.617 192.247C820.424 187.569 820.822 182.829 820.809 178.081C820.876 151.381 806.079 118.071 792.369 109.449ZM791.662 175.548C789.226 175.549 786.844 174.825 784.819 173.468C782.793 172.111 781.214 170.182 780.282 167.924C779.349 165.667 779.105 163.183 779.58 160.787C780.055 158.39 781.228 156.189 782.95 154.461C784.673 152.733 786.867 151.557 789.256 151.08C791.645 150.604 794.121 150.849 796.372 151.784C798.622 152.719 800.545 154.303 801.898 156.335C803.25 158.367 803.972 160.756 803.971 163.199C803.972 164.821 803.655 166.428 803.037 167.926C802.418 169.425 801.512 170.787 800.368 171.934C799.225 173.081 797.868 173.99 796.374 174.61C794.88 175.23 793.278 175.549 791.662 175.548Z" fill="#292524" fill-opacity="0.1"/>
<path d="M801.79 231.444C801.792 233.44 800.586 235.429 798.998 237.687C795.421 242.75 787.888 242.832 784.303 237.682C782.946 235.728 781.504 232.527 781.504 231.435C781.507 231.199 781.435 230.968 781.299 230.775C781.163 230.582 780.969 230.437 780.746 230.36C780.524 230.283 780.282 230.279 780.057 230.348C779.831 230.417 779.633 230.555 779.491 230.743C777.375 233.458 776.225 236.805 776.224 240.251C776.227 248.811 791.663 265.103 791.663 265.103C791.663 265.103 807.107 248.802 807.103 240.242C807.109 236.792 805.957 233.44 803.833 230.727C803.142 229.899 801.767 230.372 801.79 231.444Z" fill="#292524" fill-opacity="0.1"/>
<mask id="mask0_25_3327" style="mask-type:alpha" maskUnits="userSpaceOnUse" x="0" y="62" width="1244" height="238">
<rect y="62.1949" width="1244" height="237.745" rx="13" fill="#1C1917"/>
</mask>
<g mask="url(#mask0_25_3327)">
<path d="M761.737 278.968C761.75 278.736 761.698 278.505 761.585 278.302C761.472 278.099 761.304 277.932 761.1 277.822C747.538 270.361 710.615 274.032 687.58 287.367C683.479 289.72 679.589 292.428 675.956 295.459C670.486 293.456 664.773 292.365 659.44 293.169C644.378 295.496 636.31 309.963 633.434 316.346C633.274 316.695 633.198 317.076 633.21 317.46C633.222 317.843 633.322 318.219 633.504 318.557C633.685 318.895 633.942 319.186 634.255 319.407C634.567 319.629 634.926 319.774 635.304 319.833L657.579 323.254C657.157 324.895 656.819 326.556 656.566 328.23C656.373 329.389 656.591 330.579 657.181 331.593L663.32 342.229C663.901 343.249 664.819 344.033 665.915 344.445C667.479 345.06 669.073 345.594 670.69 346.046L662.527 367.084C662.389 367.441 662.335 367.826 662.37 368.208C662.405 368.59 662.528 368.959 662.729 369.285C662.93 369.612 663.204 369.887 663.529 370.089C663.854 370.292 664.221 370.416 664.601 370.452C671.53 371.169 688.081 371.4 697.586 359.47C700.947 355.239 702.867 349.761 703.88 344.039C708.323 342.4 712.614 340.377 716.706 337.991C739.791 324.699 761.149 295.19 761.737 278.968ZM704.319 311.403C703.101 309.287 702.535 306.856 702.694 304.418C702.853 301.98 703.729 299.644 705.211 297.705C706.694 295.766 708.716 294.312 711.022 293.526C713.329 292.741 715.816 292.659 718.168 293.291C720.521 293.924 722.634 295.242 724.24 297.079C725.846 298.916 726.873 301.19 727.19 303.613C727.508 306.035 727.102 308.498 726.024 310.689C724.946 312.88 723.245 314.702 721.135 315.923C719.735 316.735 718.19 317.262 716.587 317.474C714.984 317.686 713.355 317.58 711.793 317.16C710.231 316.74 708.767 316.015 707.485 315.028C706.203 314.04 705.127 312.808 704.319 311.403Z" fill="#292524" fill-opacity="0.1"/>
</g>
<path d="M539.987 284.906C539.974 285.138 540.027 285.369 540.139 285.572C540.252 285.775 540.42 285.942 540.624 286.052C554.187 293.513 591.109 289.842 614.144 276.508C618.245 274.154 622.135 271.447 625.768 268.416C631.238 270.419 636.951 271.51 642.284 270.705C657.346 268.378 665.414 253.911 668.29 247.528C668.45 247.18 668.527 246.798 668.514 246.415C668.502 246.031 668.402 245.656 668.22 245.318C668.039 244.98 667.782 244.689 667.47 244.467C667.157 244.246 666.798 244.1 666.42 244.042L644.145 240.62C644.567 238.98 644.905 237.319 645.158 235.644C645.351 234.485 645.133 233.296 644.543 232.281L638.404 221.645C637.823 220.626 636.905 219.842 635.809 219.429C634.245 218.815 632.652 218.28 631.034 217.828L639.197 196.791C639.335 196.433 639.389 196.048 639.354 195.666C639.319 195.284 639.196 194.915 638.995 194.589C638.794 194.263 638.52 193.988 638.195 193.785C637.87 193.583 637.503 193.458 637.123 193.422C630.194 192.705 613.643 192.474 604.138 204.405C600.777 208.635 598.857 214.114 597.844 219.836C593.401 221.474 589.11 223.498 585.018 225.883C561.934 239.175 540.575 268.685 539.987 284.906ZM597.405 252.472C598.623 254.587 599.189 257.018 599.03 259.456C598.872 261.894 597.996 264.231 596.513 266.169C595.031 268.108 593.008 269.562 590.702 270.348C588.395 271.134 585.908 271.215 583.556 270.583C581.203 269.951 579.09 268.632 577.484 266.795C575.878 264.958 574.852 262.684 574.534 260.262C574.216 257.839 574.622 255.376 575.7 253.185C576.778 250.994 578.479 249.173 580.589 247.952C581.989 247.14 583.534 246.613 585.137 246.4C586.74 246.188 588.369 246.295 589.931 246.715C591.493 247.134 592.957 247.859 594.239 248.847C595.522 249.835 596.597 251.066 597.405 252.472Z" fill="#292524" fill-opacity="0.1"/>
<path d="M640.596 215.725C642.319 214.725 644.639 214.778 647.382 215.028C653.541 215.605 657.378 222.108 654.725 227.797C653.716 229.953 651.674 232.806 650.731 233.352C650.526 233.469 650.363 233.647 650.264 233.861C650.165 234.076 650.137 234.316 650.182 234.548C650.228 234.78 650.345 234.992 650.517 235.153C650.689 235.315 650.907 235.418 651.141 235.447C654.543 235.928 658.007 235.254 660.983 233.532C668.371 229.249 674.718 207.693 674.718 207.693C674.718 207.693 652.923 202.427 645.535 206.71C642.554 208.429 640.236 211.106 638.956 214.309C638.587 215.323 639.683 216.281 640.596 215.725Z" fill="#292524" fill-opacity="0.1"/>
<path d="M492.741 256.906C492.755 257.138 492.702 257.369 492.589 257.572C492.477 257.775 492.309 257.942 492.105 258.052C478.542 265.513 441.62 261.842 418.585 248.508C414.483 246.154 410.594 243.447 406.961 240.416C401.491 242.419 395.777 243.51 390.445 242.705C375.383 240.378 367.315 225.911 364.439 219.528C364.279 219.18 364.202 218.798 364.214 218.415C364.226 218.031 364.327 217.656 364.508 217.318C364.69 216.98 364.947 216.689 365.259 216.467C365.572 216.246 365.931 216.1 366.309 216.042L388.584 212.62C388.162 210.98 387.824 209.319 387.57 207.644C387.378 206.485 387.595 205.296 388.186 204.281L394.325 193.645C394.906 192.626 395.824 191.842 396.92 191.429C398.483 190.815 400.077 190.28 401.695 189.828L393.531 168.791C393.393 168.433 393.34 168.048 393.375 167.666C393.41 167.284 393.533 166.915 393.734 166.589C393.935 166.263 394.209 165.988 394.533 165.785C394.858 165.583 395.225 165.458 395.606 165.422C402.535 164.705 419.086 164.474 428.591 176.405C431.952 180.635 433.872 186.114 434.885 191.836C439.327 193.474 443.619 195.498 447.711 197.883C470.795 211.175 492.153 240.685 492.741 256.906ZM435.324 224.472C434.105 226.587 433.54 229.018 433.698 231.456C433.857 233.894 434.733 236.231 436.216 238.169C437.698 240.108 439.721 241.562 442.027 242.348C444.333 243.134 446.82 243.215 449.173 242.583C451.526 241.951 453.639 240.632 455.245 238.795C456.851 236.958 457.877 234.684 458.195 232.262C458.512 229.839 458.106 227.376 457.029 225.185C455.951 222.994 454.249 221.173 452.139 219.952C450.74 219.14 449.194 218.613 447.591 218.4C445.988 218.188 444.359 218.295 442.798 218.715C441.236 219.134 439.772 219.859 438.49 220.847C437.207 221.835 436.131 223.066 435.324 224.472Z" fill="#292524" fill-opacity="0.1"/>
<path d="M392.133 187.725C390.41 186.725 388.09 186.778 385.347 187.028C379.188 187.605 375.35 194.108 378.004 199.797C379.013 201.953 381.055 204.806 381.998 205.352C382.203 205.469 382.366 205.647 382.465 205.861C382.563 206.076 382.592 206.316 382.547 206.548C382.501 206.78 382.384 206.992 382.212 207.153C382.04 207.315 381.821 207.418 381.588 207.447C378.186 207.928 374.721 207.254 371.746 205.532C364.358 201.249 358.011 179.693 358.011 179.693C358.011 179.693 379.806 174.427 387.194 178.71C390.175 180.429 392.493 183.106 393.773 186.309C394.142 187.323 393.046 188.281 392.133 187.725Z" fill="#292524" fill-opacity="0.1"/>
<path d="M490.641 179.622C490.756 179.824 490.926 179.988 491.131 180.096C491.336 180.204 491.567 180.251 491.798 180.232C507.233 179.035 536.215 155.713 548.292 131.925C550.455 127.706 552.246 123.308 553.646 118.78C559.324 117.456 564.711 115.235 568.748 111.637C580.119 101.43 579.025 84.9026 577.968 77.9855C577.912 77.6062 577.769 77.2452 577.551 76.931C577.332 76.6168 577.043 76.3578 576.708 76.1746C576.372 75.9913 575.998 75.8887 575.615 75.8749C575.233 75.861 574.852 75.9362 574.503 76.0947L553.955 85.4491C553.417 83.8455 552.798 82.2707 552.1 80.7306C551.632 79.6557 550.802 78.7799 549.755 78.2554L538.823 72.7244C537.781 72.1905 536.585 72.0382 535.441 72.2938C533.795 72.6376 532.168 73.0649 530.565 73.5739L525.978 51.4977C525.899 51.1227 525.734 50.7714 525.497 50.4711C525.26 50.1709 524.957 49.93 524.611 49.7672C524.265 49.6045 523.885 49.5243 523.503 49.5331C523.12 49.5419 522.745 49.6393 522.406 49.8178C516.203 53.0184 502.191 61.9023 500.702 77.0957C500.182 82.4781 501.549 88.1141 503.809 93.4566C500.973 97.2636 498.473 101.31 496.336 105.55C484.194 129.33 482.316 165.73 490.641 179.622ZM521.182 120.998C523.355 122.1 525.151 123.823 526.343 125.95C527.535 128.077 528.07 130.511 527.881 132.946C527.691 135.381 526.784 137.707 525.276 139.629C523.768 141.551 521.726 142.984 519.409 143.745C517.091 144.506 514.601 144.562 512.255 143.906C509.909 143.25 507.812 141.911 506.229 140.059C504.645 138.206 503.647 135.924 503.36 133.5C503.073 131.075 503.511 128.619 504.617 126.44C505.35 124.993 506.36 123.704 507.59 122.648C508.819 121.591 510.244 120.787 511.782 120.281C513.321 119.776 514.943 119.579 516.556 119.702C518.169 119.825 519.741 120.266 521.182 120.998Z" fill="#292524" fill-opacity="0.1"/>
<path d="M537.444 66.5691C538.345 64.7881 540.321 63.5603 542.758 62.2648C548.239 59.3691 554.994 62.705 555.86 68.9193C556.186 71.2762 556.024 74.7831 555.53 75.7567C555.421 75.9665 555.38 76.2051 555.414 76.4387C555.448 76.6724 555.555 76.8892 555.719 77.0583C555.883 77.2274 556.096 77.3403 556.329 77.3809C556.561 77.4215 556.8 77.3878 557.012 77.2845C560.128 75.8212 562.668 73.357 564.228 70.2841C568.098 62.6492 561.706 41.1363 561.706 41.1363C561.706 41.1363 540.557 48.684 536.687 56.3189C535.12 59.3929 534.631 62.9032 535.298 66.2842C535.539 67.3352 536.98 67.5355 537.444 66.5691Z" fill="#292524" fill-opacity="0.1"/>
</g>
</svg>
