<svg width="29" height="29" viewBox="0 0 29 29" fill="none" xmlns="http://www.w3.org/2000/svg">
<ellipse cx="14.8858" cy="14.7693" rx="14.0572" ry="14.0572" fill="#F2F2F1"/>
<path d="M21.3386 15.7103L18.643 11.1542C18.4528 10.8326 18.1579 10.5777 17.8059 10.437L17.6518 10.066C17.4807 9.65314 17.0736 9.36218 16.598 9.36218C15.9684 9.36218 15.4566 9.87391 15.4566 10.5036C15.4566 10.6063 15.47 10.7052 15.4947 10.8004L15.624 11.2855C15.5956 11.3483 15.5689 11.4111 15.5481 11.4776C15.3522 11.3387 15.1201 11.2664 14.8861 11.2664C14.6521 11.2664 14.42 11.3386 14.224 11.4776C14.2031 11.411 14.1765 11.3483 14.148 11.2855L14.2773 10.8004C14.302 10.7052 14.3154 10.6064 14.3154 10.5036C14.3154 9.87391 13.8036 9.36218 13.174 9.36218C12.6984 9.36218 12.2913 9.65326 12.1201 10.066L11.9659 10.437C11.614 10.5777 11.3192 10.8326 11.1289 11.1542L8.43326 15.7103C8.18218 16.1364 8.0376 16.6329 8.0376 17.1617C8.0376 18.7388 9.31595 20.0152 10.8911 20.0152C12.0515 20.0152 13.0522 19.3227 13.4973 18.3259C13.6495 17.9854 13.9234 17.7115 14.2639 17.5593C14.4656 17.4682 14.6768 17.4262 14.886 17.4262C15.0953 17.4262 15.3063 17.4682 15.508 17.5593C15.8485 17.7115 16.1224 17.9854 16.2746 18.3259C16.7199 19.3229 17.7205 20.0152 18.8808 20.0152C20.456 20.0152 21.7343 18.7388 21.7343 17.1617C21.7343 16.6329 21.5897 16.1364 21.3386 15.7103ZM10.891 19.6348C9.52703 19.6348 8.41795 18.5257 8.41795 17.1617C8.41795 16.7186 8.53591 16.2848 8.76037 15.9043C9.20356 15.1547 10.0215 14.6886 10.891 14.6886C12.2549 14.6886 13.364 15.7977 13.364 17.1617C13.364 18.5257 12.255 19.6348 10.891 19.6348ZM18.8808 19.6348C17.5168 19.6348 16.4078 18.5257 16.4078 17.1617C16.4078 15.7977 17.5168 14.6887 18.8808 14.6887C19.7502 14.6887 20.5682 15.1548 21.0114 15.9042C21.2359 16.2847 21.3538 16.7184 21.3538 17.1617C21.3538 18.5256 20.2448 19.6348 18.8808 19.6348Z" fill="#78716C" stroke="#78716C" stroke-width="0.560682" stroke-miterlimit="10"/>
</svg>
