<svg width="29" height="29" viewBox="0 0 29 29" fill="none" xmlns="http://www.w3.org/2000/svg">
<ellipse cx="14.9297" cy="14.7693" rx="14.0572" ry="14.0572" fill="#F2F2F1"/>
<path d="M15.0603 18.8054L15.0171 18.8198L14.9772 18.842L12.3131 20.3226C12.0836 20.4452 11.8347 20.4274 11.6377 20.2955C11.4432 20.1517 11.3326 19.8988 11.3639 19.6367L11.882 16.398L11.8881 16.3595V16.3205C11.8881 16.3198 11.8881 16.3188 11.8882 16.3176C11.8883 16.3035 11.8886 16.2539 11.8815 16.2039C11.8708 16.1281 11.8475 16.067 11.8231 16.0178L11.7883 15.9476L11.7334 15.8917L9.47649 13.594C9.31007 13.4168 9.25164 13.1692 9.32308 12.9289C9.40883 12.6867 9.59794 12.5317 9.83175 12.5014L9.83177 12.5016L9.84469 12.4996L12.8804 12.0234C12.9584 12.0171 13.0615 11.9937 13.1626 11.921C13.2528 11.8563 13.3069 11.7732 13.3203 11.7526C13.3211 11.7514 13.3217 11.7504 13.3222 11.7496L13.3432 11.718L13.3591 11.6835L14.6788 8.81752L14.6825 8.80944L14.6859 8.80122C14.7911 8.54917 15.0035 8.41121 15.2718 8.41121C15.536 8.41121 15.7481 8.5475 15.8673 8.79472L17.2066 11.6426C17.2446 11.7357 17.313 11.8369 17.4289 11.9097C17.5255 11.9703 17.6214 11.9897 17.6919 11.9952L20.7269 12.4712L20.7269 12.4713L20.7356 12.4725C20.9451 12.5015 21.1548 12.6606 21.2534 12.9147C21.33 13.1459 21.2752 13.3845 21.1006 13.5601L21.0974 13.5633L18.8099 15.9062C18.7628 15.9542 18.7054 16.0304 18.6716 16.1325C18.6458 16.2102 18.6245 16.3446 18.673 16.4835L19.1797 19.651C19.2138 19.9334 19.1126 20.169 18.9185 20.3012C18.8121 20.369 18.6839 20.4038 18.5428 20.4038C18.4352 20.4038 18.321 20.3788 18.2172 20.3229L15.5734 18.8536C15.5156 18.8168 15.4613 18.7985 15.4256 18.7889C15.3668 18.7732 15.3142 18.7696 15.2754 18.7696C15.1977 18.7696 15.124 18.7841 15.0603 18.8054Z" stroke="#78716C" stroke-width="0.98185"/>
</svg>
