<svg width="28" height="28" viewBox="0 0 28 28" fill="none" xmlns="http://www.w3.org/2000/svg">
<rect width="28" height="28" rx="7" fill="#CA8A04"/>
<path d="M14.3002 0.848633C10.7334 0.848633 7.3096 2.26672 4.78953 4.78848C2.26686 7.31123 0.849332 10.7326 0.848633 14.3002C0.848633 17.8664 2.26735 21.2902 4.78953 23.812C7.3096 26.3337 10.7334 27.7518 14.3002 27.7518C17.867 27.7518 21.2908 26.3337 23.8109 23.812C26.3331 21.2902 27.7518 17.8664 27.7518 14.3002C27.7518 10.7341 26.3331 7.31023 23.8109 4.78848C21.2908 2.26672 17.867 0.848633 14.3002 0.848633Z" fill="#CA8A04"/>
<path d="M6.93765 14.1581C10.8596 12.4498 13.4743 11.3234 14.7816 10.7793C18.5186 9.22538 19.2942 8.95551 19.8007 8.94637C19.9121 8.94458 20.1601 8.97212 20.322 9.10295C20.4565 9.2133 20.4943 9.36253 20.5132 9.4673C20.5301 9.57197 20.5532 9.81053 20.5343 9.99675C20.3325 12.1238 19.456 17.2854 19.0105 19.6678C18.8234 20.6758 18.4514 21.0138 18.092 21.0468C17.3101 21.1187 16.7174 20.5306 15.9607 20.0348C14.7774 19.2586 14.109 18.7756 12.9593 18.0183C11.631 17.1431 12.4927 16.662 13.2494 15.8759C13.447 15.6702 16.8897 12.5395 16.9549 12.2556C16.9633 12.22 16.9717 12.0876 16.8918 12.0178C16.8141 11.9479 16.6985 11.9718 16.6144 11.9907C16.4946 12.0176 14.6051 13.2678 10.9395 15.741C10.4035 16.1097 9.91802 16.2894 9.48085 16.2799C9.00163 16.2696 8.07684 16.0083 7.38954 15.7851C6.54882 15.5113 5.87834 15.3665 5.93719 14.9013C5.96662 14.6592 6.30081 14.4114 6.93765 14.1581Z" fill="white"/>
</svg>
