<svg width="28" height="28" viewBox="0 0 28 28" fill="none" xmlns="http://www.w3.org/2000/svg">
<path d="M21.4375 0H6.5625C2.93813 0 0 2.93813 0 6.5625V21.4375C0 25.0619 2.93813 28 6.5625 28H21.4375C25.0619 28 28 25.0619 28 21.4375V6.5625C28 2.93813 25.0619 0 21.4375 0Z" fill="#292524"/>
<path d="M21.4375 0H6.5625C2.93813 0 0 2.93813 0 6.5625V21.4375C0 25.0619 2.93813 28 6.5625 28H21.4375C25.0619 28 28 25.0619 28 21.4375V6.5625C28 2.93813 25.0619 0 21.4375 0Z" fill="#CA8A04"/>
<path d="M21.8282 9.99807C21.8402 10.1717 21.8402 10.3452 21.8402 10.5204C21.8402 15.8576 17.7772 22.013 10.3476 22.013V22.0097C8.15283 22.0129 6.00349 21.3843 4.15625 20.199C4.47541 20.2374 4.79609 20.2566 5.11766 20.2573C6.93674 20.2588 8.7035 19.6486 10.134 18.5249C9.29118 18.509 8.47438 18.2301 7.79783 17.7272C7.12127 17.2243 6.61877 16.5225 6.36059 15.72C6.96574 15.8367 7.5896 15.8129 8.18409 15.6505C6.29978 15.2697 4.94408 13.6141 4.94408 11.6913V11.6401C5.50582 11.953 6.13449 12.1264 6.7772 12.1457C5.00248 10.9595 4.45539 8.5984 5.52705 6.75237C6.54109 8.00023 7.8063 9.02081 9.24049 9.74783C10.6747 10.4748 12.2458 10.892 13.8517 10.9723C13.6916 10.283 13.7152 9.56384 13.9203 8.88661C14.1253 8.20938 14.5046 7.59786 15.0201 7.1132C16.647 5.58392 19.2056 5.66234 20.7349 7.28831C21.6394 7.10972 22.5068 6.77812 23.2998 6.30776C22.9983 7.24299 22.3673 8.03684 21.5242 8.54164C22.3249 8.4473 23.1069 8.23297 23.8438 7.90584C23.3017 8.71762 22.6191 9.42606 21.8282 9.99807Z" fill="white"/>
</svg>
