<svg width="40" height="40" viewBox="0 0 40 40" fill="none" xmlns="http://www.w3.org/2000/svg">
<path d="M40 20C40 31.0457 31.0457 40 20 40C8.9543 40 0 31.0457 0 20C0 8.9543 8.9543 0 20 0C31.0457 0 40 8.9543 40 20Z" fill="white"/>
<path fill-rule="evenodd" clip-rule="evenodd" d="M20 39.1429C30.5723 39.1429 39.1429 30.5723 39.1429 20C39.1429 9.42769 30.5723 0.857143 20 0.857143C9.42769 0.857143 0.857143 9.42769 0.857143 20C0.857143 30.5723 9.42769 39.1429 20 39.1429ZM20 40C31.0457 40 40 31.0457 40 20C40 8.9543 31.0457 0 20 0C8.9543 0 0 8.9543 0 20C0 31.0457 8.9543 40 20 40Z" fill="#CA8A04"/>
<path fill-rule="evenodd" clip-rule="evenodd" d="M24.1079 13.7676C24.1079 12.7261 22.9784 12.0774 22.0788 12.6021L15.4275 16.4821H24.1081L24.1079 13.7676ZM25.0074 16.4821V13.7676C25.0074 12.032 23.1248 10.9506 21.6256 11.825L13.6362 16.4856C12.4537 16.5519 11.5151 17.5318 11.5151 18.7308V25.9268C11.5151 27.1687 12.5219 28.1755 13.7639 28.1755H26.3564C27.5985 28.1755 28.6052 27.1687 28.6052 25.9268V18.7308C28.6052 17.489 27.5985 16.4822 26.3564 16.4822L25.0074 16.4821ZM13.7641 17.3816C13.0189 17.3816 12.4149 17.9857 12.4149 18.7308V25.9268C12.4149 26.6719 13.0189 27.276 13.7641 27.276H26.3566C27.1018 27.276 27.7058 26.6719 27.7058 25.9268V18.7308C27.7058 17.9857 27.1018 17.3816 26.3566 17.3816H13.7641Z" fill="#CA8A04"/>
<path d="M25.1873 22.2795C25.1873 22.6513 24.8859 22.9527 24.5141 22.9527C24.1422 22.9527 23.8408 22.6513 23.8408 22.2795C23.8408 21.9076 24.1422 21.6062 24.5141 21.6062C24.8859 21.6062 25.1873 21.9076 25.1873 22.2795Z" fill="#CA8A04"/>
</svg>
