<svg width="46" height="46" viewBox="0 0 46 46" fill="none" xmlns="http://www.w3.org/2000/svg">
<path d="M45.5 22.75C45.5 35.3145 35.3145 45.5 22.75 45.5C10.1855 45.5 0 35.3145 0 22.75C0 10.1855 10.1855 0 22.75 0C35.3145 0 45.5 10.1855 45.5 22.75Z" fill="#1C1917"/>
<path fill-rule="evenodd" clip-rule="evenodd" d="M22.75 44.525C34.776 44.525 44.525 34.776 44.525 22.75C44.525 10.724 34.776 0.975 22.75 0.975C10.724 0.975 0.975 10.724 0.975 22.75C0.975 34.776 10.724 44.525 22.75 44.525ZM22.75 45.5C35.3145 45.5 45.5 35.3145 45.5 22.75C45.5 10.1855 35.3145 0 22.75 0C10.1855 0 0 10.1855 0 22.75C0 35.3145 10.1855 45.5 22.75 45.5Z" fill="#78716C"/>
<path fill-rule="evenodd" clip-rule="evenodd" d="M27.4233 15.6603C27.4233 14.4756 26.1385 13.7377 25.1152 14.3345L17.5494 18.748H27.4234L27.4233 15.6603ZM28.4464 18.7481V15.6603C28.4464 13.686 26.305 12.456 24.5996 13.4506L15.5117 18.7521C14.1666 18.8274 13.099 19.942 13.099 21.306V29.4914C13.099 30.904 14.2442 32.0492 15.657 32.0492H29.981C31.3938 32.0492 32.539 30.904 32.539 29.4914V21.306C32.539 19.8933 31.3938 18.7481 29.981 18.7481L28.4464 18.7481ZM15.6572 19.7712C14.8095 19.7712 14.1225 20.4584 14.1225 21.3059V29.4914C14.1225 30.3389 14.8095 31.0261 15.6572 31.0261H29.9812C30.8289 31.0261 31.5159 30.3389 31.5159 29.4914V21.3059C31.5159 20.4584 30.8289 19.7712 29.9812 19.7712H15.6572Z" fill="#78716C"/>
<path d="M28.6519 25.3425C28.6519 25.7655 28.309 26.1083 27.8861 26.1083C27.4631 26.1083 27.1202 25.7655 27.1202 25.3425C27.1202 24.9195 27.4631 24.5767 27.8861 24.5767C28.309 24.5767 28.6519 24.9195 28.6519 25.3425Z" fill="#78716C"/>
</svg>
