<svg width="13" height="15" viewBox="0 0 13 15" fill="none" xmlns="http://www.w3.org/2000/svg">
<path d="M8.39092 14.5286H2.98245C1.83874 14.5286 0.909668 13.5994 0.909668 12.4559V4.80777C0.909668 3.66406 1.83891 2.73499 2.98245 2.73499H8.39092C9.53463 2.73499 10.4637 3.66423 10.4637 4.80777V12.4559C10.4637 13.5996 9.53446 14.5286 8.39092 14.5286ZM2.98245 3.92614C2.49395 3.92614 2.10096 4.3193 2.10096 4.80763V12.4557C2.10096 12.9442 2.49412 13.3372 2.98245 13.3372H8.39092C8.87942 13.3372 9.27241 12.9441 9.27241 12.4557V4.80763C9.27241 4.31913 8.87925 3.92614 8.39092 3.92614H2.98245Z" fill="#78716C"/>
<path d="M2.98245 3.92614C2.49395 3.92614 2.10096 4.3193 2.10096 4.80763V12.4557C2.10096 12.9442 2.49412 13.3372 2.98245 13.3372H8.39092C8.87942 13.3372 9.27241 12.9441 9.27241 12.4557V4.80763C9.27241 4.31913 8.87925 3.92614 8.39092 3.92614H2.98245Z" fill="#78716C"/>
<path d="M12.1912 11.4188C11.8577 11.4188 11.5956 11.1567 11.5956 10.8232V3.80644C11.5956 2.56757 10.595 1.56678 9.35594 1.56678H4.59076C4.25717 1.56678 3.99512 1.30472 3.99512 0.971134C3.99512 0.637545 4.25717 0.375488 4.59076 0.375488H9.35594C11.25 0.375488 12.7869 1.91219 12.7869 3.80641V10.8231C12.7869 11.1447 12.5248 11.4188 12.1912 11.4188L12.1912 11.4188Z" fill="#78716C"/>
</svg>
