<svg width="31" height="31" viewBox="0 0 31 31" fill="none" xmlns="http://www.w3.org/2000/svg">
<g filter="url(#filter0_d_133_2357)">
<ellipse cx="15.4919" cy="11.3626" rx="10.8503" ry="10.8503" fill="white"/>
<path d="M21.8681 5.52502L16.3394 9.25427L17.3674 7.0565L21.8681 5.52502Z" fill="#E17726" stroke="#E17726" stroke-width="0.329244" stroke-linecap="round" stroke-linejoin="round"/>
<path d="M9.11523 5.52478L14.5947 9.28883L13.6159 7.05626L9.11523 5.52478Z" fill="#E27625" stroke="#E27625" stroke-width="0.329244" stroke-linecap="round" stroke-linejoin="round"/>
<path d="M19.8773 14.1714L18.4062 16.22L21.5561 17.0106L22.4585 14.2161L19.8773 14.1714Z" fill="#E27625" stroke="#E27625" stroke-width="0.329244" stroke-linecap="round" stroke-linejoin="round"/>
<path d="M8.52979 14.2159L9.42663 17.0103L12.5711 16.2197L11.1055 14.1711L8.52979 14.2159Z" fill="#E27625" stroke="#E27625" stroke-width="0.329244" stroke-linecap="round" stroke-linejoin="round"/>
<path d="M12.4018 10.7109L11.5269 11.9142L14.6439 12.0435L14.54 8.98547L12.4018 10.7109Z" fill="#E27625" stroke="#E27625" stroke-width="0.329244" stroke-linecap="round" stroke-linejoin="round"/>
<path d="M18.581 10.7109L16.41 8.95068L16.3389 12.0435L19.4559 11.9142L18.581 10.7109Z" fill="#E27625" stroke="#E27625" stroke-width="0.329244" stroke-linecap="round" stroke-linejoin="round"/>
<path d="M12.5713 16.2202L14.4579 15.3898L12.8338 14.2362L12.5713 16.2202Z" fill="#E27625" stroke="#E27625" stroke-width="0.329244" stroke-linecap="round" stroke-linejoin="round"/>
<path d="M16.5249 15.3898L18.4061 16.2202L18.1491 14.2362L16.5249 15.3898Z" fill="#E27625" stroke="#E27625" stroke-width="0.329244" stroke-linecap="round" stroke-linejoin="round"/>
<path d="M18.4061 16.2204L16.5249 15.39L16.678 16.5038L16.6616 16.9762L18.4061 16.2204Z" fill="#D5BFB2" stroke="#D5BFB2" stroke-width="0.329244" stroke-linecap="round" stroke-linejoin="round"/>
<path d="M12.5713 16.2201L14.3212 16.9759L14.3103 16.5036L14.4579 15.3898L12.5713 16.2201Z" fill="#D5BFB2" stroke="#D5BFB2" stroke-width="0.329244" stroke-linecap="round" stroke-linejoin="round"/>
<path d="M14.354 13.5001L12.79 13.0824L13.8947 12.62L14.354 13.5001Z" fill="#233447" stroke="#233447" stroke-width="0.329244" stroke-linecap="round" stroke-linejoin="round"/>
<path d="M16.6294 13.5001L17.0888 12.62L18.1989 13.0824L16.6294 13.5001Z" fill="#233447" stroke="#233447" stroke-width="0.329244" stroke-linecap="round" stroke-linejoin="round"/>
<path d="M12.5715 16.2204L12.845 14.1718L11.106 14.2165L12.5715 16.2204Z" fill="#CC6228" stroke="#CC6228" stroke-width="0.329244" stroke-linecap="round" stroke-linejoin="round"/>
<path d="M18.1387 14.1718L18.4066 16.2204L19.8777 14.2165L18.1387 14.1718Z" fill="#CC6228" stroke="#CC6228" stroke-width="0.329244" stroke-linecap="round" stroke-linejoin="round"/>
<path d="M19.4564 11.9152L16.3394 12.0444L16.6292 13.5013L17.0885 12.6212L18.1987 13.0837L19.4564 11.9152Z" fill="#CC6228" stroke="#CC6228" stroke-width="0.329244" stroke-linecap="round" stroke-linejoin="round"/>
<path d="M12.7901 13.0837L13.8947 12.6212L14.3541 13.5013L14.6439 12.0444L11.5269 11.9152L12.7901 13.0837Z" fill="#CC6228" stroke="#CC6228" stroke-width="0.329244" stroke-linecap="round" stroke-linejoin="round"/>
<path d="M11.5269 11.9144L12.8338 14.2365L12.7901 13.0829L11.5269 11.9144Z" fill="#E27525" stroke="#E27525" stroke-width="0.329244" stroke-linecap="round" stroke-linejoin="round"/>
<path d="M18.1986 13.0835L18.1494 14.2371L19.4564 11.915L18.1986 13.0835Z" fill="#E27525" stroke="#E27525" stroke-width="0.329244" stroke-linecap="round" stroke-linejoin="round"/>
<path d="M14.6443 12.0432L14.3545 13.5001L14.7209 15.2205L14.8029 12.9531L14.6443 12.0432Z" fill="#E27525" stroke="#E27525" stroke-width="0.329244" stroke-linecap="round" stroke-linejoin="round"/>
<path d="M16.3392 12.0432L16.186 12.9482L16.2626 15.2205L16.629 13.5001L16.3392 12.0432Z" fill="#E27525" stroke="#E27525" stroke-width="0.329244" stroke-linecap="round" stroke-linejoin="round"/>
<path d="M16.6291 13.5004L16.2627 15.2209L16.5252 15.3899L18.1493 14.2363L18.1986 13.0828L16.6291 13.5004Z" fill="#F5841F" stroke="#F5841F" stroke-width="0.329244" stroke-linecap="round" stroke-linejoin="round"/>
<path d="M12.79 13.0828L12.8338 14.2363L14.458 15.3899L14.7204 15.2209L14.354 13.5004L12.79 13.0828Z" fill="#F5841F" stroke="#F5841F" stroke-width="0.329244" stroke-linecap="round" stroke-linejoin="round"/>
<path d="M16.6618 16.9755L16.6782 16.5031L16.536 16.3938H14.447L14.3103 16.5031L14.3212 16.9755L12.5713 16.2197L13.1838 16.6772L14.4251 17.4578H16.5524L17.7992 16.6772L18.4062 16.2197L16.6618 16.9755Z" fill="#C0AC9D" stroke="#C0AC9D" stroke-width="0.329244" stroke-linecap="round" stroke-linejoin="round"/>
<path d="M16.5253 15.3892L16.2628 15.2201H14.7207L14.4582 15.3892L14.3105 16.503L14.4473 16.3936H16.5363L16.6784 16.503L16.5253 15.3892Z" fill="#161616" stroke="#161616" stroke-width="0.329244" stroke-linecap="round" stroke-linejoin="round"/>
<path d="M22.1033 9.49767L22.5682 7.43912L21.8682 5.52478L16.5254 9.12971L18.5816 10.7109L21.4854 11.4816L22.1252 10.8004L21.8463 10.6164L22.2893 10.2485L21.9502 10.0098L22.3932 9.70153L22.1033 9.49767Z" fill="#763E1A" stroke="#763E1A" stroke-width="0.329244" stroke-linecap="round" stroke-linejoin="round"/>
<path d="M8.41553 7.439L8.88582 9.49754L8.58505 9.70141L9.03348 10.0097L8.69442 10.2484L9.13738 10.6163L8.85848 10.8003L9.4983 11.4815L12.4021 10.7108L14.4583 9.12959L9.1155 5.52466L8.41553 7.439Z" fill="#763E1A" stroke="#763E1A" stroke-width="0.329244" stroke-linecap="round" stroke-linejoin="round"/>
<path d="M21.4852 11.4815L18.5814 10.7108L19.4564 11.9141L18.1494 14.2362L19.8775 14.2163H22.4586L21.4852 11.4815Z" fill="#F5841F" stroke="#F5841F" stroke-width="0.329244" stroke-linecap="round" stroke-linejoin="round"/>
<path d="M12.402 10.7108L9.49821 11.4815L8.53027 14.2163H11.106L12.834 14.2362L11.527 11.9141L12.402 10.7108Z" fill="#F5841F" stroke="#F5841F" stroke-width="0.329244" stroke-linecap="round" stroke-linejoin="round"/>
<path d="M16.3396 12.0438L16.5255 9.12998L17.3676 7.05652H13.6162L14.4584 9.12998L14.6443 12.0438L14.7154 12.9587L14.7209 15.2211H16.263L16.2685 12.9587L16.3396 12.0438Z" fill="#F5841F" stroke="#F5841F" stroke-width="0.329244" stroke-linecap="round" stroke-linejoin="round"/>
</g>
<defs>
<filter id="filter0_d_133_2357" x="0.641602" y="0.512329" width="29.7007" height="29.7007" filterUnits="userSpaceOnUse" color-interpolation-filters="sRGB">
<feFlood flood-opacity="0" result="BackgroundImageFix"/>
<feColorMatrix in="SourceAlpha" type="matrix" values="0 0 0 0 0 0 0 0 0 0 0 0 0 0 0 0 0 0 127 0" result="hardAlpha"/>
<feOffset dy="4"/>
<feGaussianBlur stdDeviation="2"/>
<feComposite in2="hardAlpha" operator="out"/>
<feColorMatrix type="matrix" values="0 0 0 0 0 0 0 0 0 0 0 0 0 0 0 0 0 0 0.07 0"/>
<feBlend mode="normal" in2="BackgroundImageFix" result="effect1_dropShadow_133_2357"/>
<feBlend mode="normal" in="SourceGraphic" in2="effect1_dropShadow_133_2357" result="shape"/>
</filter>
</defs>
</svg>
