<svg width="23" height="20" viewBox="0 0 23 20" fill="none" xmlns="http://www.w3.org/2000/svg">
<path d="M1.89767 0.398804C1.03584 0.398804 0.325684 1.10896 0.325684 1.97079V13.236C0.325684 14.0977 1.03584 14.8078 1.89767 14.8078H21.2844C22.1462 14.8078 22.8563 14.0977 22.8563 13.236V1.97079C22.8563 1.10896 22.1462 0.398804 21.2844 0.398804H1.89767ZM1.89767 1.44683H21.2844C21.5837 1.44683 21.8083 1.67142 21.8083 1.97074V13.236C21.8083 13.5353 21.5837 13.7599 21.2844 13.7599H1.89767C1.59834 13.7599 1.37375 13.5353 1.37375 13.236V1.97074C1.37375 1.67141 1.59835 1.44683 1.89767 1.44683ZM18.8774 11.9261C18.7383 11.9325 18.6077 11.9941 18.5141 12.0968C18.4204 12.1997 18.3714 12.3356 18.378 12.4745C18.3844 12.6136 18.4459 12.7443 18.5488 12.838C18.6517 12.9316 18.7875 12.9805 18.9266 12.974H20.4984C20.6387 12.976 20.7739 12.9217 20.8737 12.8232C20.9737 12.7247 21.0298 12.5904 21.0298 12.45C21.0298 12.3097 20.9737 12.1754 20.8737 12.0769C20.7739 11.9784 20.6387 11.9241 20.4984 11.9261H18.9266C18.9101 11.9254 18.8938 11.9254 18.8774 11.9261ZM5.56542 15.5938C4.26828 15.5938 3.20768 16.6544 3.20768 17.9517V18.7375C3.20768 19.027 3.44232 19.2614 3.73159 19.2616H17.3547C17.495 19.2634 17.6301 19.2092 17.73 19.1107C17.83 19.0122 17.8861 18.8779 17.8861 18.7375C17.8861 18.5973 17.83 18.4628 17.73 18.3643C17.6301 18.266 17.495 18.2116 17.3547 18.2136H4.25556V17.9517C4.25556 17.2169 4.83084 16.6418 5.56547 16.6418H17.6167C18.3513 16.6418 18.9266 17.2169 18.9266 17.9517V18.7375C18.9246 18.8779 18.9788 19.0131 19.0773 19.1129C19.1758 19.2128 19.3102 19.2689 19.4505 19.2689C19.5908 19.2689 19.7252 19.2128 19.8237 19.1129C19.9222 19.0131 19.9764 18.8779 19.9744 18.7375V17.9517C19.9744 16.6544 18.9138 15.5938 17.6167 15.5938L5.56542 15.5938Z" fill="#292524"/>
</svg>
