<svg width="20" height="20" viewBox="0 0 20 20" fill="none" xmlns="http://www.w3.org/2000/svg">
<path fill-rule="evenodd" clip-rule="evenodd" d="M13.96 1.07052C14.3298 1.7112 15.0133 2.10585 15.7532 2.10585C16.321 2.10585 16.8655 2.33124 17.2671 2.73272C17.6688 3.13435 17.894 3.67876 17.894 4.24655V7.28619C17.894 7.67837 17.9974 8.06358 18.1933 8.40307C18.5514 9.0228 19.1702 10.0949 19.7131 11.0355C19.9971 11.527 20.0739 12.1114 19.9271 12.66C19.78 13.2084 19.4213 13.676 18.9296 13.9598C18.289 14.3297 17.8941 15.0133 17.8941 15.7532C17.8941 16.321 17.6688 16.8655 17.2673 17.2671C16.8656 17.6688 16.3212 17.894 15.7534 17.894H12.7138C12.3216 17.894 11.9364 17.9974 11.5969 18.1933C10.9772 18.5514 9.90513 19.1702 8.96452 19.7131C8.47297 19.9971 7.88859 20.0739 7.33998 19.9271C6.79156 19.78 6.32401 19.4214 6.0402 18.9296C5.67034 18.289 4.98674 17.8942 4.24685 17.8942C3.67902 17.8942 3.1345 17.6688 2.73286 17.2673C2.33123 16.8656 2.10599 16.3212 2.10599 15.7535V12.7138C2.10599 12.3216 2.0026 11.9364 1.80666 11.5969C1.44859 10.9772 0.829786 9.90513 0.286922 8.96452C0.00294236 8.47297 -0.0739475 7.88859 0.0728519 7.33998C0.219957 6.79156 0.578652 6.32401 1.07036 6.0402C1.71105 5.67034 2.10585 4.98674 2.10585 4.24685C2.10585 3.67902 2.33124 3.1345 2.73272 2.73286C3.13435 2.33123 3.67876 2.10599 4.24655 2.10599H7.28619C7.67837 2.10599 8.06358 2.0026 8.40307 1.80666C9.0228 1.44859 10.0949 0.829786 11.0355 0.286922C11.527 0.00294238 12.1114 -0.0739475 12.66 0.0728519C13.2084 0.219957 13.6761 0.578807 13.96 1.07052ZM9.00156 10.5444C8.96839 10.5776 8.91491 10.5776 8.88174 10.5444C8.57513 10.2378 7.18327 8.84597 6.87668 8.53954C6.8435 8.50637 6.79002 8.50637 6.75685 8.53954L5.36037 9.93602C5.3272 9.9692 5.3272 10.0227 5.36037 10.0558L8.88176 13.5772C8.91493 13.6104 8.96841 13.6104 9.00158 13.5772C9.57389 13.0049 14.0675 8.5117 14.6397 7.93907C14.6729 7.9059 14.6729 7.85242 14.6397 7.81925C14.3968 7.57635 13.4862 6.66567 13.2433 6.42277C13.2101 6.38959 13.1566 6.38959 13.1234 6.42277C12.6469 6.89896 9.47804 10.0684 9.00156 10.5444Z" fill="#CA8A04"/>
<path d="M9.00156 10.5444C8.96839 10.5776 8.91491 10.5776 8.88174 10.5444L6.87668 8.53954C6.8435 8.50637 6.79002 8.50637 6.75685 8.53954L5.36037 9.93602C5.3272 9.9692 5.3272 10.0227 5.36037 10.0558L8.88176 13.5772C8.91493 13.6104 8.96841 13.6104 9.00158 13.5772C9.57389 13.0049 14.0675 8.5117 14.6397 7.93907C14.6729 7.9059 14.6729 7.85242 14.6397 7.81925L13.2433 6.42277C13.2101 6.38959 13.1566 6.38959 13.1234 6.42277C12.6469 6.89896 9.47804 10.0684 9.00156 10.5444Z" fill="#292524"/>
</svg>
