<svg width="15" height="18" viewBox="0 0 15 18" fill="none" xmlns="http://www.w3.org/2000/svg">
<path fill-rule="evenodd" clip-rule="evenodd" d="M6.2731 1.77761C4.59763 2.25027 3.93946 3.76691 4.29841 6.32725L4.2985 6.32703C4.38168 6.91927 4.06703 7.49624 3.52426 7.74724C3.41737 7.79669 3.30392 7.83037 3.18728 7.84704C2.52331 7.94274 1.9075 7.48188 1.81177 6.81767C1.78749 6.64819 1.77526 6.4665 1.77526 6.27241C-1.17933 8.86124 -1.14076 18 7.32095 18C15.7827 18 16.0809 8.86097 13.1267 7.0157C13.2128 7.19667 13.2632 7.43316 13.2775 7.72511C13.2786 7.74513 13.2789 7.76516 13.2789 7.78519C13.2789 8.45598 12.7351 8.99979 12.0643 8.99979C12.0404 8.99979 12.0165 8.99908 11.9925 8.99731C11.4342 8.9576 11.0135 8.47283 11.0533 7.91445C11.3815 3.29098 10.1375 0.652678 7.32088 0C8.18894 1.10469 8.58989 2.31856 8.52395 3.6418C8.48761 4.37071 7.88598 4.94325 7.15602 4.94325C6.39947 4.94325 5.7727 4.35637 5.72306 3.60159C5.67219 2.83052 5.85565 2.22253 6.2731 1.77761ZM3.61934 11.3373C3.77518 12.4815 4.15906 15.3 7.13954 15.3C10.0195 15.3 10.7853 13.014 10.8 12.2229C10.2284 12.6117 8.59921 12.2737 8.79939 11.3581C8.99725 10.4531 8.97527 8.80391 8.56855 8.1C8.66748 8.73352 8.14746 10.2301 7.29344 10.3123C6.55112 10.3838 6.13 9.54222 5.97588 9.12096C5.96135 9.07362 5.94613 9.02813 5.93038 8.98492C5.94142 9.0219 5.95655 9.06812 5.97588 9.12096C6.15071 9.6904 6.22633 10.5265 5.93038 10.8754C5.43573 11.4587 4.58931 11.5894 3.6 11.1972C3.60614 11.2405 3.61252 11.2873 3.61934 11.3373Z" fill="#CA8A04"/>
</svg>
