<svg width="16" height="18" viewBox="0 0 16 18" fill="none" xmlns="http://www.w3.org/2000/svg">
<path d="M13.4309 11.7715L15.7764 15.8319L13.2149 15.3266H13.2148C13.0632 15.297 12.9128 15.3838 12.8626 15.5299L12.0208 18.0001L9.72437 14.0243C11.1778 13.6544 12.4608 12.856 13.431 11.7714L13.4309 11.7715Z" fill="#CA8A04"/>
<path d="M2.34493 11.7705C3.31508 12.8555 4.59814 13.6547 6.05194 14.0247L3.75546 17.9998L2.91368 15.5295V15.5297C2.86346 15.3836 2.71325 15.2967 2.56152 15.3263L0 15.8316L2.34493 11.7705Z" fill="#CA8A04"/>
<path d="M7.88787 0C4.1196 0 1.07227 3.04992 1.07227 6.81809C1.07227 10.5863 4.11981 13.6337 7.88787 13.6337C11.6559 13.6337 14.7035 10.5861 14.7035 6.81809C14.7035 3.05003 11.6559 0 7.88787 0ZM7.88787 1.24004C10.9643 1.24004 13.4641 3.74179 13.4641 6.81809C13.4641 9.89456 10.9642 12.3944 7.88787 12.3944C4.81157 12.3944 2.3123 9.89439 2.3123 6.81809C2.3123 3.74175 4.81157 1.24004 7.88787 1.24004ZM7.88787 1.8597C5.1464 1.8597 2.92914 4.07665 2.92914 6.81809C2.92914 9.5597 5.14623 11.7743 7.88787 11.7743C10.6295 11.7743 12.8438 9.55973 12.8438 6.81809C12.8438 4.07662 10.6292 1.8597 7.88787 1.8597ZM7.88787 3.36708C8.10766 3.36708 8.14542 3.46321 8.20379 3.52255C8.56079 3.95384 8.84392 4.49397 9.1665 4.98638C9.72753 5.12801 10.3072 5.23134 10.8543 5.44808C10.9287 5.48529 11.0496 5.51627 11.0994 5.70231C11.1491 5.88821 11.0797 6.08448 10.9093 6.26929C10.6112 6.65022 10.2724 7.04691 9.95559 7.41733C9.96984 7.62951 10.0794 8.68155 10.0379 9.16496C10.0257 9.24712 10.0512 9.34671 9.87329 9.4759C9.69555 9.60523 9.60744 9.55142 9.52542 9.53773C8.98376 9.39816 8.4374 9.12942 7.88788 8.9204C7.61401 9.02939 6.73817 9.4196 6.25033 9.53773C6.16831 9.55142 6.08089 9.60523 5.90302 9.4759C5.72514 9.34671 5.75004 9.24712 5.73786 9.16496C5.69955 8.60355 5.78614 8.04114 5.82072 7.41733C5.68406 7.25315 4.97436 6.46779 4.72483 6.04964C4.68638 5.97592 4.60906 5.91132 4.67697 5.70232C4.74489 5.49319 4.8471 5.4853 4.92151 5.44809C5.43467 5.24643 6.03953 5.12886 6.60927 4.98639C6.77802 4.71985 7.23407 3.91402 7.57265 3.52257C7.63088 3.46323 7.66809 3.36708 7.88787 3.36708ZM7.88787 4.11925C7.80101 4.24166 7.69741 4.40322 7.59077 4.57667C7.45148 4.80489 7.29186 5.07474 7.12835 5.31556C7.08658 5.37448 7.07206 5.41542 6.97288 5.48749C6.87371 5.55941 6.83429 5.55969 6.76527 5.58127C6.30937 5.70395 5.85443 5.7969 5.39287 5.93342C5.65194 6.26331 5.99996 6.65613 6.29386 7.02626C6.33702 7.08422 6.37035 7.10884 6.40825 7.22544C6.44615 7.34191 6.43384 7.38188 6.43315 7.45422C6.41116 7.92701 6.35929 8.38743 6.34407 8.86964C6.78889 8.70255 7.21465 8.51831 7.66389 8.34859C7.73236 8.32549 7.76528 8.30018 7.88783 8.30018C8.36766 8.40295 8.91704 8.69149 9.43161 8.86963C9.40989 8.39479 9.36563 7.93405 9.34267 7.45421C9.34184 7.38187 9.33008 7.3419 9.36798 7.22544C9.40588 7.10883 9.43935 7.08421 9.48237 7.02626C9.77685 6.65708 10.093 6.3175 10.3835 5.93342C9.92651 5.80547 9.47419 5.70492 9.01096 5.58126C8.94208 5.55968 8.90197 5.55954 8.8028 5.48748C8.70362 5.41542 8.6891 5.37448 8.64733 5.31555C8.38826 4.92052 8.16002 4.5165 7.88783 4.11924L7.88787 4.11925Z" fill="#CA8A04"/>
</svg>
