<svg width="11" height="11" viewBox="0 0 11 11" fill="none" xmlns="http://www.w3.org/2000/svg">
<path fill-rule="evenodd" clip-rule="evenodd" d="M7.67798 0.588785C7.8814 0.941161 8.25729 1.15822 8.66423 1.15822C8.97654 1.15822 9.27603 1.28218 9.49692 1.503C9.71782 1.72389 9.8417 2.02332 9.8417 2.3356V4.0074C9.8417 4.2231 9.89857 4.43497 10.0063 4.62169C10.2033 4.96254 10.5436 5.55218 10.8422 6.06951C10.9984 6.33987 11.0407 6.66127 10.9599 6.96301C10.879 7.26464 10.6817 7.52179 10.4113 7.67789C10.0589 7.88131 9.84178 8.25729 9.84178 8.66423C9.84178 8.97654 9.71782 9.27603 9.497 9.49693C9.27611 9.71782 8.97668 9.8417 8.6644 9.8417H6.9926C6.7769 9.8417 6.56503 9.89857 6.37831 10.0063C6.03746 10.2033 5.44782 10.5436 4.93049 10.8422C4.66013 10.9984 4.33873 11.0407 4.03699 10.9599C3.73536 10.879 3.47821 10.6817 3.32211 10.4113C3.11869 10.0589 2.74271 9.84178 2.33577 9.84178C2.02346 9.84178 1.72397 9.71782 1.50308 9.497C1.28218 9.27611 1.1583 8.97668 1.1583 8.6644V6.9926C1.1583 6.7769 1.10143 6.56503 0.993664 6.37831C0.796723 6.03746 0.456382 5.44782 0.157807 4.93049C0.0016183 4.66013 -0.0406711 4.33873 0.0400686 4.03699C0.120976 3.73536 0.318258 3.47821 0.5887 3.32211C0.941076 3.11869 1.15822 2.74271 1.15822 2.33577C1.15822 2.02346 1.28218 1.72397 1.503 1.50308C1.72389 1.28218 2.02332 1.1583 2.3356 1.1583H4.0074C4.2231 1.1583 4.43497 1.10143 4.62169 0.993664C4.96254 0.796723 5.55218 0.456382 6.06951 0.157807C6.33987 0.00161831 6.66127 -0.0406711 6.96301 0.0400685C7.26464 0.120976 7.52188 0.318344 7.67798 0.588785ZM4.95086 5.79944C4.93262 5.81769 4.9032 5.81769 4.88496 5.79944C4.71632 5.63081 3.9508 4.86528 3.78217 4.69675C3.76393 4.6785 3.73451 4.6785 3.71627 4.69675L2.9482 5.46481C2.92996 5.48306 2.92996 5.51247 2.9482 5.53071L4.88497 7.46748C4.90321 7.48573 4.93263 7.48573 4.95087 7.46748C5.26564 7.15271 7.73714 4.68144 8.05186 4.36649C8.07011 4.34825 8.07011 4.31883 8.05186 4.30059C7.91826 4.16699 7.41739 3.66612 7.28379 3.53252C7.26555 3.51428 7.23614 3.51428 7.21789 3.53252C6.95581 3.79443 5.21292 5.5376 4.95086 5.79944Z" fill="#3D9691"/>
<path d="M4.95086 5.79944C4.93262 5.81769 4.9032 5.81769 4.88496 5.79944L3.78217 4.69675C3.76393 4.6785 3.73451 4.6785 3.71627 4.69675L2.9482 5.46481C2.92996 5.48306 2.92996 5.51247 2.9482 5.53071L4.88497 7.46748C4.90321 7.48573 4.93263 7.48573 4.95087 7.46748C5.26564 7.15271 7.73714 4.68144 8.05186 4.36649C8.07011 4.34825 8.07011 4.31883 8.05186 4.30059L7.28379 3.53252C7.26555 3.51428 7.23614 3.51428 7.21789 3.53252C6.95581 3.79443 5.21292 5.5376 4.95086 5.79944Z" fill="#A6E9E5"/>
</svg>
