<svg width="21" height="20" viewBox="0 0 21 20" fill="none" xmlns="http://www.w3.org/2000/svg">
<path d="M19.9128 0.271384C19.9046 0.231865 19.8854 0.19549 19.8573 0.166524C19.8292 0.137559 19.7934 0.117202 19.7542 0.107841C17.137 -0.532033 11.09 1.74819 7.81373 5.02308C7.22939 5.6027 6.69668 6.23214 6.22164 6.90427C5.21134 6.8149 4.20103 6.88952 3.33997 7.26487C0.910506 8.33416 0.203159 11.1242 0.00610299 12.3244C-0.00507441 12.3901 -0.000858287 12.4575 0.0184196 12.5213C0.0376975 12.5851 0.0715115 12.6435 0.117202 12.692C0.162893 12.7405 0.219214 12.7778 0.281736 12.8008C0.344258 12.8239 0.411276 12.8321 0.477519 12.8249L4.37887 12.3946C4.38166 12.6887 4.39941 12.9825 4.43205 13.2749C4.45168 13.4779 4.5418 13.6676 4.68675 13.8111L6.19751 15.3183C6.34113 15.463 6.53077 15.5531 6.73372 15.573C7.02442 15.6055 7.31658 15.6232 7.60908 15.6261L7.18101 19.5226C7.17387 19.5888 7.18216 19.6558 7.20525 19.7182C7.22833 19.7807 7.26558 19.837 7.31406 19.8827C7.36254 19.9283 7.42095 19.9622 7.48469 19.9815C7.54844 20.0008 7.61579 20.0051 7.68147 19.994C8.87944 19.8018 11.6744 19.0945 12.7375 16.665C13.1128 15.804 13.1897 14.7986 13.103 13.7932C13.7767 13.3181 14.4078 12.7853 14.9891 12.2007C18.2756 8.93069 20.5429 3.01855 19.9128 0.271384ZM11.7102 8.29975C11.4101 7.99985 11.2057 7.61768 11.1228 7.20158C11.0399 6.78549 11.0823 6.35416 11.2446 5.96216C11.4069 5.57017 11.6818 5.23511 12.0345 4.99937C12.3873 4.76363 12.802 4.6378 13.2263 4.6378C13.6506 4.6378 14.0653 4.76363 14.418 4.99937C14.7708 5.23511 15.0457 5.57017 15.208 5.96216C15.3703 6.35416 15.4127 6.78549 15.3298 7.20158C15.2469 7.61768 15.0425 7.99985 14.7424 8.29975C14.5434 8.49903 14.3071 8.65713 14.0469 8.765C13.7868 8.87286 13.5079 8.92839 13.2263 8.92839C12.9447 8.92839 12.6658 8.87286 12.4057 8.765C12.1455 8.65713 11.9092 8.49903 11.7102 8.29975Z" fill="#CA8A04"/>
</svg>
