<svg width="22" height="22" viewBox="0 0 22 22" fill="none" xmlns="http://www.w3.org/2000/svg">
<path d="M21.6565 0.348027C21.6479 0.306412 21.6277 0.268109 21.5981 0.237608C21.5685 0.207107 21.5308 0.185671 21.4895 0.175814C18.7336 -0.497981 12.366 1.90312 8.91606 5.35162C8.30074 5.96196 7.73979 6.62478 7.23957 7.33254C6.17571 7.23843 5.11185 7.31701 4.20514 7.71225C1.64688 8.83822 0.902039 11.7762 0.694537 13.04C0.682767 13.1092 0.687207 13.1802 0.707506 13.2473C0.727806 13.3145 0.763413 13.3761 0.811526 13.4271C0.859638 13.4782 0.918945 13.5174 0.984782 13.5417C1.05062 13.566 1.12119 13.5746 1.19094 13.567L5.29912 13.1139C5.30205 13.4236 5.32074 13.733 5.35511 14.0408C5.37578 14.2546 5.47068 14.4544 5.62331 14.6055L7.21417 16.1926C7.36539 16.345 7.56509 16.4399 7.7788 16.4608C8.08491 16.495 8.39256 16.5137 8.70056 16.5168L8.2498 20.6198C8.24228 20.6895 8.25101 20.76 8.27532 20.8258C8.29963 20.8916 8.33885 20.9509 8.3899 20.999C8.44096 21.047 8.50246 21.0827 8.56958 21.103C8.63671 21.1233 8.70763 21.1278 8.77679 21.1162C10.0383 20.9138 12.9814 20.169 14.1008 17.6107C14.496 16.704 14.577 15.6453 14.4857 14.5867C15.1952 14.0864 15.8597 13.5253 16.4718 12.9097C19.9325 9.46638 22.32 3.24083 21.6565 0.348027ZM13.0191 8.80199C12.7031 8.48619 12.4878 8.08376 12.4005 7.64561C12.3133 7.20746 12.3579 6.75326 12.5288 6.34049C12.6997 5.92771 12.9892 5.57489 13.3606 5.32665C13.7321 5.07841 14.1688 4.94592 14.6156 4.94592C15.0623 4.94592 15.499 5.07841 15.8705 5.32665C16.2419 5.57489 16.5314 5.92771 16.7023 6.34049C16.8732 6.75326 16.9179 7.20746 16.8306 7.64561C16.7433 8.08376 16.5281 8.48619 16.2121 8.80199C16.0025 9.01184 15.7537 9.17832 15.4797 9.2919C15.2058 9.40549 14.9121 9.46395 14.6156 9.46395C14.319 9.46395 14.0254 9.40549 13.7514 9.2919C13.4775 9.17832 13.2286 9.01184 13.0191 8.80199Z" fill="#CA8A04"/>
<path d="M7.10595 17.342C6.8481 17.6003 6.4345 17.701 5.93669 17.7871C4.81824 17.9777 3.8306 17.0112 4.03152 15.8805C4.10822 15.4519 4.33501 14.851 4.47617 14.7098C4.50702 14.6796 4.52756 14.6404 4.53486 14.5978C4.54216 14.5552 4.53586 14.5114 4.51685 14.4726C4.49783 14.4338 4.46708 14.4019 4.42895 14.3816C4.39081 14.3613 4.34724 14.3535 4.30443 14.3593C3.67898 14.4358 3.09712 14.7194 2.65146 15.1648C1.54525 16.272 1.4408 20.3802 1.4408 20.3802C1.4408 20.3802 5.55132 20.2757 6.65753 19.1686C7.10437 18.7233 7.38829 18.1405 7.46355 17.5142C7.48096 17.3175 7.24146 17.2004 7.10595 17.342Z" fill="#CA8A04"/>
</svg>
